<?xml version="1.0" standalone="no"?>
<!DOCTYPE svg PUBLIC "-//W3C//DTD SVG 20010904//EN"
 "http://www.w3.org/TR/2001/REC-SVG-20010904/DTD/svg10.dtd">
<svg version="1.0" xmlns="http://www.w3.org/2000/svg"
 width="1200.000000pt" height="1200.000000pt" viewBox="0 0 1200.000000 1200.000000"
 preserveAspectRatio="xMidYMid meet">
<metadata>
Created by potrace 1.14, written by Peter Selinger 2001-2017
</metadata>
<g transform="translate(0.000000,1200.000000) scale(0.100000,-0.100000)"
fill="#000000" stroke="none">
<path d="M5978 10115 c-2 -1 -52 -5 -113 -9 -60 -3 -123 -8 -140 -10 -16 -2
-59 -7 -95 -11 -93 -10 -312 -51 -432 -80 -102 -26 -355 -105 -413 -130 -16
-7 -68 -30 -115 -51 -658 -288 -1130 -755 -1359 -1344 -43 -109 -94 -285 -89
-301 4 -13 1466 -562 1477 -555 4 3 13 31 21 63 29 131 123 368 185 468 80
129 120 181 201 262 109 107 240 192 379 245 62 24 160 53 160 48 0 -1 11 3
25 8 14 5 45 12 70 16 25 3 56 8 70 11 116 23 432 23 550 0 13 -3 42 -7 63
-10 22 -4 51 -11 66 -16 14 -6 27 -10 29 -9 8 4 143 -45 196 -72 265 -134 435
-364 490 -663 20 -107 25 -285 13 -435 -10 -110 -14 -137 -39 -240 -104 -428
-389 -645 -928 -708 -85 -9 -523 -9 -621 1 -59 6 -78 4 -81 -5 -2 -7 -3 -281
-3 -608 l1 -595 25 1 c13 1 47 5 74 8 170 20 590 27 745 14 82 -8 216 -26 240
-33 8 -2 26 -6 40 -9 145 -28 312 -100 411 -177 167 -131 276 -328 305 -549 3
-25 9 -61 13 -80 11 -52 6 -305 -8 -380 -14 -74 -49 -206 -61 -229 -5 -9 -20
-43 -35 -75 -52 -120 -173 -277 -285 -370 -121 -99 -326 -199 -481 -232 -141
-30 -235 -39 -419 -39 -217 0 -316 10 -485 46 -580 126 -925 486 -1079 1128
-14 57 -27 106 -29 108 -3 2 -98 -37 -213 -88 -115 -50 -261 -114 -324 -141
-63 -28 -133 -58 -155 -68 -22 -10 -83 -37 -135 -60 -151 -66 -183 -81 -215
-95 -16 -7 -140 -61 -275 -120 -135 -59 -246 -108 -248 -110 -4 -4 37 -119 73
-206 106 -251 263 -510 424 -694 43 -49 235 -241 276 -275 110 -93 362 -270
384 -270 6 0 11 -3 11 -7 0 -5 10 -13 23 -19 12 -6 78 -40 147 -75 69 -35 146
-72 170 -83 25 -10 59 -24 75 -32 252 -109 665 -212 1000 -250 33 -3 69 -8 79
-10 139 -26 880 -25 1017 1 9 2 40 6 70 10 182 22 445 81 619 138 532 174 961
465 1273 862 84 106 202 299 248 402 16 37 34 76 39 85 26 47 108 313 124 403
2 17 10 57 15 90 33 189 36 638 5 747 -3 9 -7 27 -9 40 -3 13 -7 37 -10 53
-27 136 -132 378 -226 516 -125 186 -290 344 -492 472 -104 67 -336 171 -427
193 -8 2 -51 13 -95 25 -44 11 -89 23 -100 25 -60 12 -146 24 -219 30 -67 5
-69 6 -61 25 3 8 41 21 94 31 305 59 588 217 842 468 167 165 261 295 369 510
35 69 87 195 94 225 1 6 10 37 20 70 10 33 19 67 21 75 44 227 55 334 55 550
1 178 -10 296 -41 450 -33 171 -79 310 -154 465 -98 203 -201 350 -360 511
-228 230 -496 399 -840 530 -69 26 -116 42 -145 49 -8 2 -50 13 -92 25 -43 11
-85 23 -95 24 -10 2 -36 9 -58 14 -40 11 -180 36 -265 47 -25 3 -56 8 -70 10
-14 2 -61 7 -105 11 -44 4 -93 8 -110 10 -36 5 -562 13 -567 9z"/>
</g>
</svg>
